<mxfile host="65bd71144e">
    <diagram id="whsvw9BAwa8M8qadcSOC" name="Страница 1">
        <mxGraphModel dx="2576" dy="2558" grid="0" gridSize="10" guides="1" tooltips="1" connect="1" arrows="1" fold="1" page="0" pageScale="1" pageWidth="827" pageHeight="1169" math="0" shadow="0">
            <root>
                <mxCell id="0"/>
                <mxCell id="1" parent="0"/>
                <object placeholders="1" c4Name="Operators" c4Type="Software System" c4Description="Description of external software system." label="&lt;font style=&quot;font-size: 16px&quot;&gt;&lt;b&gt;%c4Name%&lt;/b&gt;&lt;/font&gt;&lt;div&gt;[%c4Type%]&lt;/div&gt;&lt;br&gt;&lt;div&gt;&lt;font style=&quot;font-size: 11px&quot;&gt;&lt;font color=&quot;#cccccc&quot;&gt;%c4Description%&lt;/font&gt;&lt;/div&gt;" id="4">
                    <mxCell style="rounded=1;whiteSpace=wrap;html=1;labelBackgroundColor=none;fillColor=#8C8496;fontColor=#ffffff;align=center;arcSize=10;strokeColor=#736782;metaEdit=1;resizable=0;points=[[0.25,0,0],[0.5,0,0],[0.75,0,0],[1,0.25,0],[1,0.5,0],[1,0.75,0],[0.75,1,0],[0.5,1,0],[0.25,1,0],[0,0.75,0],[0,0.5,0],[0,0.25,0]];" parent="1" vertex="1">
                        <mxGeometry x="417" y="-671" width="240" height="120" as="geometry"/>
                    </mxCell>
                </object>
                <object placeholders="1" c4Type="Relationship" c4Technology="JSON/HTTP" c4Description="Отправка Web-хуков &#10;изменения каталога услуг" label="&lt;div style=&quot;text-align: left&quot;&gt;&lt;div style=&quot;text-align: center&quot;&gt;&lt;b&gt;%c4Description%&lt;/b&gt;&lt;/div&gt;&lt;div style=&quot;text-align: center&quot;&gt;[%c4Technology%]&lt;/div&gt;&lt;/div&gt;" id="6">
                    <mxCell style="endArrow=blockThin;html=1;fontSize=10;fontColor=#404040;strokeWidth=1;endFill=1;strokeColor=#828282;elbow=vertical;metaEdit=1;endSize=14;startSize=14;jumpStyle=arc;jumpSize=16;rounded=0;edgeStyle=orthogonalEdgeStyle;entryX=0.25;entryY=0;entryDx=0;entryDy=0;entryPerimeter=0;" parent="1" source="4" target="12" edge="1">
                        <mxGeometry x="-0.6484" width="240" relative="1" as="geometry">
                            <mxPoint x="330" y="350" as="sourcePoint"/>
                            <mxPoint x="570" y="350" as="targetPoint"/>
                            <mxPoint as="offset"/>
                        </mxGeometry>
                    </mxCell>
                </object>
                <object placeholders="1" c4Name="User" c4Type="Person" c4Description="Выполняет поиск предложений услуг, просматривает подробную текстовую и медиа-информацию о них." label="&lt;font style=&quot;font-size: 16px&quot;&gt;&lt;b&gt;%c4Name%&lt;/b&gt;&lt;/font&gt;&lt;div&gt;[%c4Type%]&lt;/div&gt;&lt;br&gt;&lt;div&gt;&lt;font style=&quot;font-size: 11px&quot;&gt;&lt;font color=&quot;#cccccc&quot;&gt;%c4Description%&lt;/font&gt;&lt;/div&gt;" id="11">
                    <mxCell style="html=1;fontSize=11;dashed=0;whiteSpace=wrap;fillColor=#083F75;strokeColor=#06315C;fontColor=#ffffff;shape=mxgraph.c4.person2;align=center;metaEdit=1;points=[[0.5,0,0],[1,0.5,0],[1,0.75,0],[0.75,1,0],[0.5,1,0],[0.25,1,0],[0,0.75,0],[0,0.5,0]];resizable=0;" parent="1" vertex="1">
                        <mxGeometry x="690" y="-723" width="200" height="180" as="geometry"/>
                    </mxCell>
                </object>
                <object placeholders="1" c4Name="WAF / Load Balancer" c4Type="Container" c4Technology="VirtualIP, K8S" c4Description="Балансировка трафика внутри дата-центра (Virtual IP) и рабочего кластера (K8S)" label="&lt;font style=&quot;font-size: 16px&quot;&gt;&lt;b&gt;%c4Name%&lt;/b&gt;&lt;/font&gt;&lt;div&gt;[%c4Type%: %c4Technology%]&lt;/div&gt;&lt;br&gt;&lt;div&gt;&lt;font style=&quot;font-size: 11px&quot;&gt;&lt;font color=&quot;#E6E6E6&quot;&gt;%c4Description%&lt;/font&gt;&lt;/div&gt;" id="12">
                    <mxCell style="rounded=1;whiteSpace=wrap;html=1;fontSize=11;labelBackgroundColor=none;fillColor=#23A2D9;fontColor=#ffffff;align=center;arcSize=10;strokeColor=#0E7DAD;metaEdit=1;resizable=0;points=[[0.25,0,0],[0.5,0,0],[0.75,0,0],[1,0.25,0],[1,0.5,0],[1,0.75,0],[0.75,1,0],[0.5,1,0],[0.25,1,0],[0,0.75,0],[0,0.5,0],[0,0.25,0]];" parent="1" vertex="1">
                        <mxGeometry x="450" y="-110" width="240" height="120" as="geometry"/>
                    </mxCell>
                </object>
                <object placeholders="1" c4Name="Web-application" c4Type="Container" c4Technology="React" c4Description="Web-приложение для клиентов агрегатора услуг" label="&lt;font style=&quot;font-size: 16px&quot;&gt;&lt;b&gt;%c4Name%&lt;/b&gt;&lt;/font&gt;&lt;div&gt;[%c4Type%: %c4Technology%]&lt;/div&gt;&lt;br&gt;&lt;div&gt;&lt;font style=&quot;font-size: 11px&quot;&gt;&lt;font color=&quot;#E6E6E6&quot;&gt;%c4Description%&lt;/font&gt;&lt;/div&gt;" id="13">
                    <mxCell style="rounded=1;whiteSpace=wrap;html=1;fontSize=11;labelBackgroundColor=none;fillColor=#23A2D9;fontColor=#ffffff;align=center;arcSize=10;strokeColor=#0E7DAD;metaEdit=1;resizable=0;points=[[0.25,0,0],[0.5,0,0],[0.75,0,0],[1,0.25,0],[1,0.5,0],[1,0.75,0],[0.75,1,0],[0.5,1,0],[0.25,1,0],[0,0.75,0],[0,0.5,0],[0,0.25,0]];" parent="1" vertex="1">
                        <mxGeometry x="580" y="-380" width="240" height="120" as="geometry"/>
                    </mxCell>
                </object>
                <object placeholders="1" c4Name="Mobile-application" c4Type="Container" c4Technology="Kotlin, Swift" c4Description="Мобильное приложение клиентов агрегатора подсистемы iOS/Android" label="&lt;font style=&quot;font-size: 16px&quot;&gt;&lt;b&gt;%c4Name%&lt;/b&gt;&lt;/font&gt;&lt;div&gt;[%c4Type%: %c4Technology%]&lt;/div&gt;&lt;br&gt;&lt;div&gt;&lt;font style=&quot;font-size: 11px&quot;&gt;&lt;font color=&quot;#E6E6E6&quot;&gt;%c4Description%&lt;/font&gt;&lt;/div&gt;" id="14">
                    <mxCell style="rounded=1;whiteSpace=wrap;html=1;fontSize=11;labelBackgroundColor=none;fillColor=#23A2D9;fontColor=#ffffff;align=center;arcSize=10;strokeColor=#0E7DAD;metaEdit=1;resizable=0;points=[[0.25,0,0],[0.5,0,0],[0.75,0,0],[1,0.25,0],[1,0.5,0],[1,0.75,0],[0.75,1,0],[0.5,1,0],[0.25,1,0],[0,0.75,0],[0,0.5,0],[0,0.25,0]];" parent="1" vertex="1">
                        <mxGeometry x="870" y="-472" width="240" height="120" as="geometry"/>
                    </mxCell>
                </object>
                <object placeholders="1" c4Type="Relationship" c4Technology="JSON/HTTP" c4Description="" label="&lt;div style=&quot;text-align: left&quot;&gt;&lt;div style=&quot;text-align: center&quot;&gt;&lt;b&gt;%c4Description%&lt;/b&gt;&lt;/div&gt;&lt;div style=&quot;text-align: center&quot;&gt;[%c4Technology%]&lt;/div&gt;&lt;/div&gt;" id="18">
                    <mxCell style="endArrow=blockThin;html=1;fontSize=10;fontColor=#404040;strokeWidth=1;endFill=1;strokeColor=#828282;elbow=vertical;metaEdit=1;endSize=14;startSize=14;jumpStyle=arc;jumpSize=16;rounded=0;edgeStyle=orthogonalEdgeStyle;exitX=0.5;exitY=1;exitDx=0;exitDy=0;exitPerimeter=0;entryX=0.5;entryY=0;entryDx=0;entryDy=0;entryPerimeter=0;" parent="1" source="13" target="12" edge="1">
                        <mxGeometry x="-0.7143" width="240" relative="1" as="geometry">
                            <mxPoint x="550" y="190" as="sourcePoint"/>
                            <mxPoint x="790" y="190" as="targetPoint"/>
                            <mxPoint as="offset"/>
                            <Array as="points">
                                <mxPoint x="700" y="-181"/>
                                <mxPoint x="570" y="-181"/>
                            </Array>
                        </mxGeometry>
                    </mxCell>
                </object>
                <object placeholders="1" c4Type="Relationship" c4Technology="JSON/HTTP" c4Description="" label="&lt;div style=&quot;text-align: left&quot;&gt;&lt;div style=&quot;text-align: center&quot;&gt;&lt;b&gt;%c4Description%&lt;/b&gt;&lt;/div&gt;&lt;div style=&quot;text-align: center&quot;&gt;[%c4Technology%]&lt;/div&gt;&lt;/div&gt;" id="19">
                    <mxCell style="endArrow=blockThin;html=1;fontSize=10;fontColor=#404040;strokeWidth=1;endFill=1;strokeColor=#828282;elbow=vertical;metaEdit=1;endSize=14;startSize=14;jumpStyle=arc;jumpSize=16;rounded=0;edgeStyle=orthogonalEdgeStyle;entryX=0.5;entryY=0;entryDx=0;entryDy=0;entryPerimeter=0;exitX=0.5;exitY=1;exitDx=0;exitDy=0;exitPerimeter=0;" parent="1" source="14" target="12" edge="1">
                        <mxGeometry x="-0.8571" width="240" relative="1" as="geometry">
                            <mxPoint x="860" y="-10" as="sourcePoint"/>
                            <mxPoint x="790" y="190" as="targetPoint"/>
                            <mxPoint as="offset"/>
                            <Array as="points">
                                <mxPoint x="990" y="-181"/>
                                <mxPoint x="570" y="-181"/>
                            </Array>
                        </mxGeometry>
                    </mxCell>
                </object>
                <object placeholders="1" c4Type="Relationship" id="62">
                    <mxCell style="endArrow=blockThin;html=1;fontSize=10;fontColor=#404040;strokeWidth=1;endFill=1;strokeColor=#828282;elbow=vertical;metaEdit=1;endSize=14;startSize=14;jumpStyle=arc;jumpSize=16;rounded=0;edgeStyle=orthogonalEdgeStyle;" parent="1" source="11" target="14" edge="1">
                        <mxGeometry width="240" relative="1" as="geometry">
                            <mxPoint x="798" y="-436" as="sourcePoint"/>
                            <mxPoint x="1038" y="-436" as="targetPoint"/>
                        </mxGeometry>
                    </mxCell>
                </object>
                <object placeholders="1" c4Type="Relationship" id="63">
                    <mxCell style="endArrow=blockThin;html=1;fontSize=10;fontColor=#404040;strokeWidth=1;endFill=1;strokeColor=#828282;elbow=vertical;metaEdit=1;endSize=14;startSize=14;jumpStyle=arc;jumpSize=16;rounded=0;edgeStyle=orthogonalEdgeStyle;" parent="1" source="11" target="13" edge="1">
                        <mxGeometry width="240" relative="1" as="geometry">
                            <mxPoint x="800" y="-533" as="sourcePoint"/>
                            <mxPoint x="1000" y="-462" as="targetPoint"/>
                            <Array as="points">
                                <mxPoint x="790" y="-508"/>
                                <mxPoint x="700" y="-508"/>
                            </Array>
                        </mxGeometry>
                    </mxCell>
                </object>
                <object placeholders="1" c4Name="USuperTravel" c4Type="SystemScopeBoundary" c4Application="Software System" label="&lt;font style=&quot;font-size: 16px&quot;&gt;&lt;b&gt;&lt;div style=&quot;text-align: left&quot;&gt;%c4Name%&lt;/div&gt;&lt;/b&gt;&lt;/font&gt;&lt;div style=&quot;text-align: left&quot;&gt;[%c4Application%]&lt;/div&gt;" id="64">
                    <mxCell style="rounded=1;fontSize=11;whiteSpace=wrap;html=1;dashed=1;arcSize=20;fillColor=none;strokeColor=#666666;fontColor=#333333;labelBackgroundColor=none;align=left;verticalAlign=bottom;labelBorderColor=none;spacingTop=0;spacing=10;dashPattern=8 4;metaEdit=1;rotatable=0;perimeter=rectanglePerimeter;noLabel=0;labelPadding=0;allowArrows=0;connectable=0;expand=0;recursiveResize=0;editable=1;pointerEvents=0;absoluteArcSize=1;points=[[0.25,0,0],[0.5,0,0],[0.75,0,0],[1,0.25,0],[1,0.5,0],[1,0.75,0],[0.75,1,0],[0.5,1,0],[0.25,1,0],[0,0.75,0],[0,0.5,0],[0,0.25,0]];" parent="1" vertex="1">
                        <mxGeometry x="417" y="-528" width="1311" height="602" as="geometry"/>
                    </mxCell>
                </object>
                <object placeholders="1" c4Name="SSO Service" c4Type="Container" c4Technology="Keycloak" c4Description="Сервис аутентификации/авторизации пользователей приложений, а так же партнёрских сервисов операторов услуг." label="&lt;font style=&quot;font-size: 16px&quot;&gt;&lt;b&gt;%c4Name%&lt;/b&gt;&lt;/font&gt;&lt;div&gt;[%c4Type%: %c4Technology%]&lt;/div&gt;&lt;br&gt;&lt;div&gt;&lt;font style=&quot;font-size: 11px&quot;&gt;&lt;font color=&quot;#E6E6E6&quot;&gt;%c4Description%&lt;/font&gt;&lt;/div&gt;" id="71">
                    <mxCell style="rounded=1;whiteSpace=wrap;html=1;fontSize=11;labelBackgroundColor=none;fillColor=#23A2D9;fontColor=#ffffff;align=center;arcSize=10;strokeColor=#0E7DAD;metaEdit=1;resizable=0;points=[[0.25,0,0],[0.5,0,0],[0.75,0,0],[1,0.25,0],[1,0.5,0],[1,0.75,0],[0.75,1,0],[0.5,1,0],[0.25,1,0],[0,0.75,0],[0,0.5,0],[0,0.25,0]];" parent="1" vertex="1">
                        <mxGeometry x="1156" y="-212" width="240" height="120" as="geometry"/>
                    </mxCell>
                </object>
                <object placeholders="1" c4Type="Relationship" c4Technology="HTTP" c4Description="Auth-запросы" label="&lt;div style=&quot;text-align: left&quot;&gt;&lt;div style=&quot;text-align: center&quot;&gt;&lt;b&gt;%c4Description%&lt;/b&gt;&lt;/div&gt;&lt;div style=&quot;text-align: center&quot;&gt;[%c4Technology%]&lt;/div&gt;&lt;/div&gt;" id="72">
                    <mxCell style="endArrow=blockThin;html=1;fontSize=10;fontColor=#404040;strokeWidth=1;endFill=1;strokeColor=#828282;elbow=vertical;metaEdit=1;endSize=14;startSize=14;jumpStyle=arc;jumpSize=16;rounded=0;edgeStyle=orthogonalEdgeStyle;exitX=1;exitY=0.5;exitDx=0;exitDy=0;exitPerimeter=0;entryX=0;entryY=0.5;entryDx=0;entryDy=0;entryPerimeter=0;" parent="1" source="12" target="71" edge="1">
                        <mxGeometry x="0.5033" width="240" relative="1" as="geometry">
                            <mxPoint x="1100" y="79" as="sourcePoint"/>
                            <mxPoint x="1340" y="79" as="targetPoint"/>
                            <mxPoint as="offset"/>
                        </mxGeometry>
                    </mxCell>
                </object>
                <object placeholders="1" c4Type="SSO DB" c4Container="Container" c4Technology="PostgreSQL/Infinispan" c4Description="Хранилище идентификационных данных&#10;Хранилище сессионных данных" label="&lt;font style=&quot;font-size: 16px&quot;&gt;&lt;b&gt;%c4Type%&lt;/b&gt;&lt;/font&gt;&lt;div&gt;[%c4Container%:&amp;nbsp;%c4Technology%]&lt;/div&gt;&lt;br&gt;&lt;div&gt;&lt;font style=&quot;font-size: 11px&quot;&gt;&lt;font color=&quot;#E6E6E6&quot;&gt;%c4Description%&lt;/font&gt;&lt;/div&gt;" id="73">
                    <mxCell style="shape=cylinder3;size=15;whiteSpace=wrap;html=1;boundedLbl=1;rounded=0;labelBackgroundColor=none;fillColor=#23A2D9;fontSize=12;fontColor=#ffffff;align=center;strokeColor=#0E7DAD;metaEdit=1;points=[[0.5,0,0],[1,0.25,0],[1,0.5,0],[1,0.75,0],[0.5,1,0],[0,0.75,0],[0,0.5,0],[0,0.25,0]];resizable=0;" parent="1" vertex="1">
                        <mxGeometry x="1465" y="-212" width="240" height="120" as="geometry"/>
                    </mxCell>
                </object>
                <object placeholders="1" c4Type="Relationship" id="74">
                    <mxCell style="endArrow=blockThin;html=1;fontSize=10;fontColor=#404040;strokeWidth=1;endFill=1;strokeColor=#828282;elbow=vertical;metaEdit=1;endSize=14;startSize=14;jumpStyle=arc;jumpSize=16;rounded=0;edgeStyle=orthogonalEdgeStyle;" parent="1" source="71" target="73" edge="1">
                        <mxGeometry width="240" relative="1" as="geometry">
                            <mxPoint x="1332" y="228" as="sourcePoint"/>
                            <mxPoint x="1572" y="228" as="targetPoint"/>
                        </mxGeometry>
                    </mxCell>
                </object>
            </root>
        </mxGraphModel>
    </diagram>
</mxfile>